<svg xmlns="http://www.w3.org/2000/svg" data-name=" 1" viewBox="0 0 128 128"><path d="M45.83 128c-.54 0-1.09 0-1.65-.07-9.12-.71-13.95-7.93-17.83-13.73L25.56 113C21.72 107.35 11 83.91 11.7 70.55c.47-8.65 3.84-29.47 25-35.86 8.2-2.48 17.49.77 23.63 2.92a26.23 26.23 0 0 0 4.84 1.44c1 0 3.78-1.07 6.25-2 4.45-1.7 10-3.81 14.29-3.81 4.72 0 15.12 1.26 20.72 6a35.1 35.1 0 0 1 5.94 6.67 2 2 0 0 1-.72 2.86c-.5.27-12.3 6.86-12.3 20.83 0 15.75 15.12 22.7 15.76 23a2 2 0 0 1 1 2.55c-.58 1.49-5.73 14.7-9.35 18.32-.69.69-1.54 1.76-2.53 3-3.66 4.57-9.18 11.46-16.51 11.46-4.55 0-8.22-1.32-11.77-2.59-3.15-1.13-6.12-2.2-9.46-2.2-3.09 0-6 1.07-9.08 2.2C54.09 126.6 50.28 128 45.83 128zm-2.7-90.2a18 18 0 0 0-5.24.72C19.13 44.18 16.12 63 15.7 70.77c-.66 12.06 9.75 35 13.18 40l.79 1.18c3.58 5.35 7.64 11.41 14.82 12 4.3.33 7.86-1 11.63-2.35 3.27-1.21 6.66-2.45 10.46-2.45 4 0 7.48 1.24 10.82 2.43s6.56 2.36 10.41 2.36c5.41 0 10-5.75 13.38-10 1.07-1.33 2-2.47 2.83-3.32 2.25-2.25 5.92-10.65 7.79-15.26-4.55-2.53-16.42-10.59-16.42-25.77 0-12.89 8.53-20.36 12.47-23.13a30.91 30.91 0 0 0-4-4.19c-4.37-3.73-13.24-5.08-18.13-5.08-3.56 0-8.72 2-12.87 3.55-3.81 1.45-6 2.27-7.67 2.27-1.4 0-3.4-.7-6.16-1.66C54.76 39.89 48.8 37.8 43.13 37.8zM65 31.3c-.7 0-1.13 0-1.22-.05A2 2 0 0 1 62 29.33c0-.51-.36-12.6 7.35-20.32S87.44.07 87.89 0a2 2 0 0 1 1.48.42 2 2 0 0 1 .74 1.34c0 .38 1 9.5-6.33 19.27C76.78 30.38 68.15 31.3 65 31.3zM86.14 4.43c-3.23.78-9.31 2.77-14 7.41-4.81 4.81-5.89 12-6.13 15.43 3-.23 9.25-1.61 14.52-8.63A27 27 0 0 0 86.14 4.43z"/></svg>