<svg width="60" height="60" viewBox="0 0 60 60" fill="none" xmlns="http://www.w3.org/2000/svg">
<circle cx="30" cy="30" r="30" fill="#2C2C2C"/>
<circle cx="30" cy="30" r="22" fill="#7A66CC"/>
<path d="M41.9981 29.9991C41.9981 23.3722 36.626 18 29.9991 18C23.3722 18 18 23.3722 18 29.9991C18 35.9882 22.3879 40.9522 28.1242 41.8524V33.4676H25.0776V29.9991H28.1242V27.3555C28.1242 24.3483 29.9156 22.6871 32.6564 22.6871C33.9692 22.6871 35.3424 22.9215 35.3424 22.9215V25.8744H33.8294C32.3388 25.8744 31.8739 26.7993 31.8739 27.7482V29.9991H35.2018L34.6698 33.4676H31.8739V41.8524C37.6103 40.9522 41.9981 35.9882 41.9981 29.9991Z" fill="white"/>
</svg>
