<svg width="60" height="60" viewBox="0 0 60 60" fill="none" xmlns="http://www.w3.org/2000/svg">
<circle cx="30" cy="30" r="30" fill="#2C2C2C"/>
<circle cx="30" cy="30" r="22" fill="#7A66CC"/>
<g clip-path="url(#clip0_1_199)">
<path d="M41.954 22.5691C41.069 22.9581 40.124 23.2231 39.129 23.3441C40.143 22.7331 40.923 21.7701 41.292 20.6211C40.341 21.1761 39.287 21.5801 38.165 21.8051C37.269 20.8461 35.992 20.2461 34.574 20.2461C31.857 20.2461 29.654 22.4491 29.654 25.1631C29.654 25.5531 29.699 25.9281 29.781 26.2871C25.691 26.0941 22.066 24.1301 19.64 21.1611C19.213 21.8831 18.974 22.7221 18.974 23.6361C18.974 25.3461 19.844 26.8491 21.162 27.7321C20.355 27.7061 19.596 27.4841 18.934 27.1161V27.1771C18.934 29.5621 20.627 31.5511 22.88 32.0041C22.467 32.1151 22.031 32.1751 21.584 32.1751C21.27 32.1751 20.969 32.1451 20.668 32.0891C21.299 34.0421 23.113 35.4661 25.272 35.5061C23.592 36.8251 21.463 37.6111 19.17 37.6111C18.78 37.6111 18.391 37.5881 18 37.5441C20.189 38.9381 22.768 39.7531 25.557 39.7531C34.611 39.7531 39.556 32.2571 39.556 25.7671C39.556 25.5581 39.556 25.3471 39.541 25.1371C40.502 24.4481 41.341 23.5771 42.001 22.5891L41.954 22.5691Z" fill="white"/>
</g>
<defs>
<clipPath id="clip0_1_199">
<rect width="24" height="24" fill="white" transform="translate(18 18)"/>
</clipPath>
</defs>
</svg>
