<svg width="60" height="60" viewBox="0 0 60 60" fill="none" xmlns="http://www.w3.org/2000/svg">
<circle cx="30" cy="30" r="30" fill="#2C2C2C"/>
<circle cx="30" cy="30" r="22" fill="#7A66CC"/>
<g clip-path="url(#clip0_1_194)">
<path d="M41.499 24.2031C41.3599 23.7046 41.0946 23.2504 40.7286 22.8844C40.3627 22.5185 39.9085 22.2531 39.41 22.1141C37.54 21.6131 30.01 21.6131 30.01 21.6131C30.01 21.6131 22.501 21.6031 20.611 22.1141C20.1126 22.2534 19.6585 22.5189 19.2928 22.8851C18.927 23.2512 18.6619 23.7055 18.523 24.2041C18.1682 26.1189 17.9931 28.0627 18 30.0101C17.9944 31.9504 18.1695 33.8871 18.523 35.7951C18.662 36.2934 18.9272 36.7475 19.293 37.1135C19.6587 37.4794 20.1127 37.7448 20.611 37.8841C22.48 38.3861 30.011 38.3861 30.011 38.3861C30.011 38.3861 37.519 38.3861 39.41 37.8841C39.9086 37.7449 40.3629 37.4794 40.7288 37.1133C41.0948 36.7471 41.3601 36.2927 41.499 35.7941C41.8447 33.8857 42.0121 31.9494 41.999 30.0101C42.0136 28.0627 41.8462 26.1182 41.499 24.2021V24.2031ZM27.608 33.6031V26.4071L33.874 30.0111L27.608 33.6031Z" fill="white"/>
</g>
<defs>
<clipPath id="clip0_1_194">
<rect width="24" height="24" fill="white" transform="translate(18 18)"/>
</clipPath>
</defs>
</svg>
