<svg width="60" height="60" viewBox="0 0 60 60" fill="none" xmlns="http://www.w3.org/2000/svg">
<circle cx="30" cy="30" r="30" fill="#2C2C2C"/>
<circle cx="30" cy="30" r="22" fill="#7A66CC"/>
<path d="M30 18C26.74 18 26.333 18.015 25.053 18.072C23.775 18.132 22.905 18.333 22.14 18.63C21.351 18.936 20.681 19.347 20.014 20.014C19.347 20.681 18.935 21.35 18.63 22.14C18.333 22.905 18.131 23.775 18.072 25.053C18.012 26.333 18 26.74 18 30C18 33.26 18.015 33.667 18.072 34.947C18.132 36.224 18.333 37.095 18.63 37.86C18.936 38.648 19.347 39.319 20.014 39.986C20.681 40.652 21.35 41.065 22.14 41.37C22.906 41.666 23.776 41.869 25.053 41.928C26.333 41.988 26.74 42 30 42C33.26 42 33.667 41.985 34.947 41.928C36.224 41.868 37.095 41.666 37.86 41.37C38.648 41.064 39.319 40.652 39.986 39.986C40.652 39.319 41.065 38.651 41.37 37.86C41.666 37.095 41.869 36.224 41.928 34.947C41.988 33.667 42 33.26 42 30C42 26.74 41.985 26.333 41.928 25.053C41.868 23.776 41.666 22.904 41.37 22.14C41.064 21.351 40.652 20.681 39.986 20.014C39.319 19.347 38.651 18.935 37.86 18.63C37.095 18.333 36.224 18.131 34.947 18.072C33.667 18.012 33.26 18 30 18ZM30 20.16C33.203 20.16 33.585 20.176 34.85 20.231C36.02 20.286 36.655 20.48 37.077 20.646C37.639 20.863 38.037 21.123 38.459 21.542C38.878 21.962 39.138 22.361 39.355 22.923C39.519 23.345 39.715 23.98 39.768 25.15C39.825 26.416 39.838 26.796 39.838 30C39.838 33.204 39.823 33.585 39.764 34.85C39.703 36.02 39.508 36.655 39.343 37.077C39.119 37.639 38.864 38.037 38.444 38.459C38.025 38.878 37.62 39.138 37.064 39.355C36.644 39.519 35.999 39.715 34.829 39.768C33.555 39.825 33.18 39.838 29.97 39.838C26.759 39.838 26.384 39.823 25.111 39.764C23.94 39.703 23.295 39.508 22.875 39.343C22.306 39.119 21.915 38.864 21.496 38.444C21.075 38.025 20.806 37.62 20.596 37.064C20.431 36.644 20.237 35.999 20.176 34.829C20.131 33.569 20.115 33.18 20.115 29.985C20.115 26.789 20.131 26.399 20.176 25.124C20.237 23.954 20.431 23.31 20.596 22.89C20.806 22.32 21.075 21.93 21.496 21.509C21.915 21.09 22.306 20.82 22.875 20.611C23.295 20.445 23.926 20.25 25.096 20.19C26.371 20.145 26.746 20.13 29.955 20.13L30 20.16ZM30 23.838C26.595 23.838 23.838 26.598 23.838 30C23.838 33.405 26.598 36.162 30 36.162C33.405 36.162 36.162 33.402 36.162 30C36.162 26.595 33.402 23.838 30 23.838ZM30 34C27.79 34 26 32.21 26 30C26 27.79 27.79 26 30 26C32.21 26 34 27.79 34 30C34 32.21 32.21 34 30 34ZM37.846 23.595C37.846 24.39 37.2 25.035 36.406 25.035C35.611 25.035 34.966 24.389 34.966 23.595C34.966 22.801 35.612 22.156 36.406 22.156C37.199 22.155 37.846 22.801 37.846 23.595Z" fill="white"/>
</svg>
