<svg width="60" height="60" viewBox="0 0 60 60" fill="none" xmlns="http://www.w3.org/2000/svg">
<circle cx="30" cy="30" r="30" fill="#2C2C2C"/>
<circle cx="30" cy="30" r="22" fill="#7A66CC"/>
<path d="M30 18C23.4 18 18 23.4 18 30C18 36.6 23.4 42 30 42C36.6 42 42 36.6 42 30C42 23.4 36.66 18 30 18ZM35.521 35.34C35.281 35.699 34.861 35.82 34.5 35.58C31.68 33.84 28.14 33.479 23.939 34.439C23.521 34.561 23.16 34.26 23.04 33.9C22.92 33.479 23.22 33.12 23.58 33C28.14 31.979 32.1 32.4 35.22 34.32C35.64 34.5 35.699 34.979 35.521 35.34ZM36.961 32.04C36.66 32.46 36.12 32.64 35.699 32.34C32.46 30.36 27.54 29.76 23.76 30.96C23.281 31.08 22.74 30.84 22.62 30.36C22.5 29.88 22.74 29.339 23.22 29.219C27.6 27.9 33 28.561 36.72 30.84C37.081 31.021 37.26 31.62 36.961 32.04ZM37.081 28.68C33.24 26.4 26.82 26.16 23.16 27.301C22.56 27.48 21.96 27.12 21.78 26.58C21.6 25.979 21.96 25.38 22.5 25.199C26.76 23.939 33.78 24.179 38.221 26.82C38.76 27.12 38.94 27.84 38.64 28.38C38.341 28.801 37.62 28.979 37.081 28.68Z" fill="white"/>
</svg>
