<svg width="60" height="60" viewBox="0 0 60 60" fill="none" xmlns="http://www.w3.org/2000/svg">
<circle cx="30" cy="30" r="30" fill="#2C2C2C"/>
<circle cx="30" cy="30" r="22" fill="#7A66CC"/>
<g clip-path="url(#clip0_1_184)">
<path d="M25.0779 40.55C24.6049 40.234 24.1849 39.847 23.8339 39.4C23.4509 38.937 23.0959 38.45 22.7699 37.946C22.0039 36.826 21.4049 35.601 20.9899 34.31C20.4899 32.808 20.2469 31.37 20.2469 29.963C20.2469 28.393 20.5869 27.023 21.2489 25.873C21.7389 24.973 22.4689 24.22 23.3489 23.691C24.1989 23.161 25.1889 22.871 26.1889 22.851C26.5389 22.851 26.9189 22.901 27.3189 23.001C27.6089 23.081 27.9589 23.211 28.3889 23.371C28.9389 23.581 29.2389 23.711 29.3389 23.741C29.6589 23.861 29.9289 23.911 30.1389 23.911C30.2989 23.911 30.5289 23.861 30.7839 23.781C30.9289 23.731 31.2039 23.641 31.5939 23.471C31.9799 23.331 32.2859 23.211 32.5289 23.121C32.8989 23.011 33.2569 22.911 33.5789 22.861C33.9689 22.801 34.3559 22.781 34.7269 22.811C35.4369 22.861 36.0869 23.011 36.6669 23.231C37.6869 23.641 38.5099 24.281 39.1239 25.191C38.8639 25.351 38.6239 25.537 38.3989 25.741C37.9119 26.171 37.4989 26.681 37.1689 27.246C36.7389 28.016 36.5189 28.886 36.5249 29.766C36.5399 30.849 36.8149 31.801 37.3649 32.626C37.7519 33.226 38.2689 33.74 38.8989 34.162C39.2089 34.372 39.4809 34.517 39.7389 34.612C39.6189 34.987 39.4869 35.352 39.3339 35.712C38.9869 36.519 38.5739 37.292 38.0839 38.022C37.6519 38.652 37.3119 39.122 37.0539 39.432C36.6519 39.912 36.2639 40.272 35.8739 40.529C35.4439 40.814 34.9389 40.965 34.4219 40.965C34.0719 40.98 33.7219 40.935 33.3879 40.838C33.0979 40.743 32.8119 40.636 32.5319 40.515C32.2389 40.381 31.9359 40.267 31.6269 40.175C31.2469 40.075 30.8569 40.027 30.4629 40.028C30.0629 40.028 29.6729 40.078 29.3029 40.173C28.9929 40.261 28.6929 40.369 28.3959 40.498C27.9759 40.673 27.7009 40.788 27.5409 40.838C27.2169 40.934 26.8849 40.992 26.5509 41.013C26.0309 41.013 25.5469 40.863 25.0649 40.563L25.0779 40.55ZM31.9319 22.09C31.2519 22.43 30.6059 22.574 29.9589 22.526C29.8589 21.88 29.9589 21.216 30.2289 20.489C30.4689 19.869 30.7889 19.309 31.2289 18.809C31.6889 18.289 32.2389 17.859 32.8589 17.549C33.5189 17.209 34.1489 17.029 34.7489 16.999C34.8289 17.679 34.7489 18.349 34.4989 19.069C34.2709 19.709 33.9309 20.299 33.4989 20.829C33.0639 21.349 32.5239 21.779 31.9129 22.089L31.9319 22.09Z" fill="white"/>
</g>
<defs>
<clipPath id="clip0_1_184">
<rect width="24" height="24" fill="white" transform="translate(18 17)"/>
</clipPath>
</defs>
</svg>
