<svg width="64" height="31" viewBox="0 0 64 31" fill="none" xmlns="http://www.w3.org/2000/svg">
<rect opacity="0.6" x="0.25" y="8.25" width="3.5" height="22.5" fill="#7A66CC" stroke="#1C1B21" stroke-width="0.5"/>
<rect opacity="0.3" x="4.25" y="18.25" width="3.5" height="12.5" fill="#7A66CC" stroke="#1C1B21" stroke-width="0.5"/>
<rect opacity="0.8" x="8.25" y="5.25" width="3.5" height="25.5" fill="#7A66CC" stroke="#1C1B21" stroke-width="0.5"/>
<rect opacity="0.6" x="12.25" y="12.25" width="3.5" height="18.5" fill="#7A66CC" stroke="#1C1B21" stroke-width="0.5"/>
<rect x="16.25" y="0.25" width="3.5" height="30.5" fill="#7A66CC" stroke="#1C1B21" stroke-width="0.5"/>
<rect opacity="0.9" x="20.25" y="5.25" width="3.5" height="25.5" fill="#7A66CC" stroke="#1C1B21" stroke-width="0.5"/>
<rect opacity="0.6" x="24.25" y="10.25" width="3.5" height="20.5" fill="#7A66CC" stroke="#1C1B21" stroke-width="0.5"/>
<rect opacity="0.8" x="28.25" y="3.25" width="3.5" height="27.5" fill="#7A66CC" stroke="#1C1B21" stroke-width="0.5"/>
<rect opacity="0.4" x="32.25" y="17.25" width="3.5" height="13.5" fill="#7A66CC" stroke="#1C1B21" stroke-width="0.5"/>
<rect opacity="0.5" x="36.25" y="12.25" width="3.5" height="18.5" fill="#7A66CC" stroke="#1C1B21" stroke-width="0.5"/>
<rect opacity="0.55" x="40.25" y="8.25" width="3.5" height="22.5" fill="#7A66CC" stroke="#1C1B21" stroke-width="0.5"/>
<rect opacity="0.6" x="44.25" y="4.25" width="3.5" height="26.5" fill="#7A66CC" stroke="#1C1B21" stroke-width="0.5"/>
<rect opacity="0.3" x="48.25" y="19.25" width="3.5" height="11.5" fill="#7A66CC" stroke="#1C1B21" stroke-width="0.5"/>
<rect opacity="0.2" x="52.25" y="24.25" width="3.5" height="6.5" fill="#7A66CC" stroke="#1C1B21" stroke-width="0.5"/>
<rect opacity="0.8" x="56.25" y="2.25" width="3.5" height="28.5" fill="#7A66CC" stroke="#1C1B21" stroke-width="0.5"/>
<rect opacity="0.8" x="60.25" y="8.25" width="3.5" height="22.5" fill="#7A66CC" stroke="#1C1B21" stroke-width="0.5"/>
</svg>
