<svg xmlns="http://www.w3.org/2000/svg" width="24" height="24" viewBox="0 0 24 24"><path d="M12 23.5C5.7 23.5.5 18.3.5 12S5.7.5 12 .5 23.5 5.7 23.5 12 18.3 23.5 12 23.5zm0-22C6.2 1.5 1.5 6.2 1.5 12S6.2 22.5 12 22.5 22.5 17.8 22.5 12 17.8 1.5 12 1.5z"/><path d="M16.6 16.6c-.1 0-.2 0-.3-.1-2.4-1.5-5.6-1.8-9.3-1-.3.1-.5-.1-.6-.4s.1-.5.4-.6c4-.9 7.4-.5 10.1 1.1.2.1.3.5.2.7-.2.2-.4.3-.5.3zM17.7 13.6c-.1 0-.2 0-.3-.1-2.9-1.8-7.2-2.3-10.5-1.2-.3.1-.5-.1-.6-.3s.1-.5.3-.6c3.6-1.1 8.2-.6 11.4 1.3.2.1.3.5.2.7-.2.1-.4.2-.5.2zM18.9 10.3c-.1 0-.2 0-.3-.1-3.3-2-9-2.2-12.3-1.2-.2.1-.5-.1-.6-.3-.1-.3.1-.6.3-.7 3.5-1 9.5-.8 13.2 1.3.2.1.3.4.2.7-.1.2-.3.3-.5.3z"/></svg>